<svg width="64" height="16" viewBox="0 0 64 16" fill="none" xmlns="http://www.w3.org/2000/svg">
<path d="M0.186584 2.72668C-0.154073 2.44251 0.415737 2.08207 0.871987 2.29312L6.60795 4.94645C6.90611 5.08442 7.33126 4.974 7.38654 4.74426L8.4651 0.262453C8.54933 -0.0874844 9.3539 -0.0874842 9.43805 0.262453L10.5166 4.74426C10.5719 4.974 10.997 5.08442 11.2952 4.94645L17.1333 2.24592C17.5869 2.03606 18.1556 2.39177 17.8219 2.6767L12.0566 7.60028C11.9296 7.7086 11.9293 7.85604 12.0557 7.96461L17.8489 12.9432C18.1806 13.2283 17.6123 13.5828 17.1593 13.3733L11.2952 10.6607C10.997 10.5227 10.5719 10.6331 10.5166 10.8629L9.43805 15.3447C9.3539 15.6946 8.54933 15.6946 8.4651 15.3447L7.38654 10.8629C7.33126 10.6331 6.90611 10.5227 6.60795 10.6607L0.788965 13.3524C0.3348 13.5625 -0.234099 13.2059 0.100895 12.9211L5.97841 7.92441C6.10744 7.8147 6.10635 7.66493 5.97575 7.55598L0.186584 2.72668Z" fill="#FF4C00"/>
<path d="M63.5875 4.89172L63.2612 6.3599C63.109 6.33815 62.9458 6.32728 62.7718 6.32728C61.8039 6.32728 61.0753 6.64266 60.5859 7.27344C60.1073 7.89334 59.7539 8.71987 59.5255 9.75304L58.7098 13.4888H57.3069L59.1014 5.07116H60.4064L59.9986 6.86561C60.7599 5.52793 61.7822 4.85909 63.0655 4.85909C63.2612 4.85909 63.4352 4.86996 63.5875 4.89172Z" fill="white"/>
<path d="M51.2439 5.07116L50.9665 6.40884C51.7822 5.37567 52.7936 4.85909 54.0008 4.85909C54.7294 4.85909 55.3222 5.04941 55.7789 5.43005C56.2357 5.81069 56.4641 6.30009 56.4641 6.89824C56.4641 7.268 56.3934 7.77371 56.252 8.41536L55.1753 13.4888H53.7561L54.8491 8.35011C54.9361 7.96947 54.9796 7.58339 54.9796 7.19187C54.9796 6.84386 54.8545 6.57197 54.6044 6.37621C54.3651 6.16958 54.028 6.06626 53.593 6.06626C52.7555 6.06626 52.0704 6.35446 51.5375 6.93086C51.0155 7.49639 50.6675 8.21417 50.4935 9.0842L49.5636 13.4888H48.1607L49.9388 5.07116H51.2439Z" fill="white"/>
<path d="M40.7618 7.5997C40.8923 6.70792 41.2621 6.0282 41.8711 5.56056C42.491 5.09291 43.3339 4.85909 44.3997 4.85909C45.3567 4.85909 46.1017 5.0331 46.6346 5.38111C47.1784 5.71825 47.4502 6.19133 47.4502 6.80036C47.4502 7.05049 47.385 7.45832 47.2545 8.02385L46.4714 11.5149C46.4279 11.6997 46.4062 11.8846 46.4062 12.0695C46.4062 12.374 46.553 12.5263 46.8467 12.5263C46.9445 12.5263 47.0805 12.5045 47.2545 12.461L47.075 13.5214C46.7814 13.6193 46.4932 13.6682 46.2104 13.6682C45.8624 13.6682 45.5905 13.5866 45.3948 13.4235C45.199 13.2604 45.1011 13.032 45.1011 12.7384C45.1011 12.6405 45.1066 12.548 45.1175 12.461C44.4323 13.3093 43.5024 13.7335 42.3279 13.7335C41.4905 13.7335 40.838 13.5268 40.3703 13.1136C39.9027 12.7003 39.6689 12.1239 39.6689 11.3844C39.6689 10.9276 39.7559 10.5306 39.9299 10.1935C40.1147 9.85636 40.3268 9.59535 40.5661 9.41047C40.8053 9.22558 41.1262 9.07333 41.5286 8.9537C41.9418 8.83407 42.2953 8.7525 42.5889 8.709C42.8934 8.6655 43.2741 8.62743 43.7308 8.59481C43.807 8.58393 43.9375 8.57306 44.1224 8.56218C44.3072 8.5513 44.4377 8.54587 44.5139 8.54587C44.6009 8.53499 44.7205 8.51868 44.8728 8.49693C45.0359 8.47518 45.1501 8.44799 45.2153 8.41536C45.2915 8.38274 45.3839 8.34467 45.4927 8.30117C45.6123 8.24679 45.6993 8.18698 45.7537 8.12172C45.808 8.0456 45.8624 7.95859 45.9168 7.86071C45.9821 7.76283 46.0256 7.64864 46.0473 7.51814C46.0691 7.37676 46.0799 7.2245 46.0799 7.06137C46.0799 6.72423 45.9277 6.46866 45.6232 6.29465C45.3295 6.10977 44.9108 6.01732 44.367 6.01732C43.7363 6.01732 43.236 6.13695 42.8662 6.37621C42.4965 6.61547 42.2355 7.0233 42.0832 7.5997H40.7618ZM45.6721 9.14946C45.4546 9.39959 44.8184 9.55728 43.7635 9.62254C43.4589 9.64429 43.2197 9.66604 43.0457 9.68779C42.8825 9.70954 42.6542 9.75848 42.3605 9.83461C42.0778 9.89986 41.8548 9.98686 41.6917 10.0956C41.5394 10.1935 41.3981 10.3458 41.2675 10.5524C41.137 10.759 41.0718 11.0037 41.0718 11.2865C41.0718 11.7106 41.2132 12.0478 41.4959 12.2979C41.7896 12.5372 42.1865 12.6568 42.6868 12.6568C43.5242 12.6568 44.155 12.4067 44.5791 11.9064C45.0033 11.3952 45.3187 10.6883 45.5253 9.78567L45.6721 9.14946Z" fill="white"/>
<path d="M39.674 1.87369L37.2271 13.4887H35.8241L38.2874 1.87369H39.674Z" fill="white"/>
<path d="M28.2314 1.87369H32.4728C34.9415 1.87369 36.1759 2.87967 36.1759 4.89162C36.1759 5.99005 35.817 6.90358 35.0992 7.63224C34.3815 8.35002 33.3537 8.70891 32.016 8.70891H28.313L27.2852 13.4887H25.7518L28.2314 1.87369ZM29.4875 3.16243L28.574 7.43648H31.6898C32.6142 7.43648 33.3374 7.23528 33.8594 6.83289C34.3923 6.4305 34.6588 5.81604 34.6588 4.9895C34.6588 4.63061 34.5935 4.33154 34.463 4.09228C34.3434 3.85302 34.202 3.67357 34.0389 3.55394C33.8866 3.43431 33.6528 3.34187 33.3374 3.27662C33.022 3.21137 32.7665 3.17874 32.5707 3.17874C32.3858 3.16787 32.103 3.16243 31.7224 3.16243H29.4875Z" fill="white"/>
</svg>
