<svg width="104" height="24" viewBox="0 0 104 24" fill="none" xmlns="http://www.w3.org/2000/svg">
<path d="M44.958 3.49578C45.3165 3.87223 45.8634 4.06048 46.5983 4.06048C47.3332 4.06048 47.8711 3.87223 48.2116 3.49578C48.5525 3.10139 48.7226 2.61736 48.7226 2.04369C48.7226 1.43415 48.5525 0.94118 48.2116 0.564695C47.8711 0.188242 47.3332 0 46.5983 0C45.8634 0 45.3165 0.188242 44.958 0.564695C44.6172 0.94118 44.4471 1.43415 44.4471 2.04369C44.4471 2.61736 44.6172 3.10139 44.958 3.49578Z" fill="white"/>
<path d="M27.8824 5.8219L32.4539 20.4235H38.4504L42.4033 5.8219H38.8002L35.8257 17.358H35.1908L31.728 5.8219H27.8824Z" fill="white"/>
<path d="M57.2269 20.8719C55.2192 20.8719 53.6414 20.4506 52.4942 19.6081C51.365 18.7476 50.7733 17.5642 50.7194 16.0585H54.0806C54.1345 16.5605 54.4125 17.0177 54.9142 17.43C55.4162 17.8423 56.2053 18.0483 57.2807 18.0483C58.1771 18.0483 58.885 17.8871 59.405 17.5642C59.9429 17.2416 60.2117 16.8024 60.2117 16.2466C60.2117 15.7627 60.0057 15.3772 59.5934 15.0904C59.199 14.8036 58.5176 14.6153 57.5495 14.5257L56.2588 14.3912C54.6275 14.212 53.3727 13.7459 52.4942 12.9929C51.6158 12.24 51.1766 11.2361 51.1766 9.98119C51.1766 8.97729 51.4274 8.13472 51.9294 7.45351C52.4314 6.77226 53.1218 6.26136 54.0002 5.92075C54.8963 5.56221 55.9182 5.38293 57.0657 5.38293C58.8581 5.38293 60.3103 5.77733 61.422 6.56611C62.5333 7.3549 63.116 8.5112 63.1698 10.035H59.8083C59.7724 9.53305 59.5216 9.10277 59.0555 8.74423C58.5894 8.38572 57.9172 8.20644 57.0388 8.20644C56.2498 8.20644 55.6405 8.35881 55.2102 8.66356C54.78 8.96832 54.5647 9.36271 54.5647 9.84674C54.5647 10.3129 54.7351 10.6714 55.0757 10.9224C55.4342 11.1733 56.0079 11.3436 56.7966 11.4333L58.0874 11.5677C59.8083 11.747 61.1529 12.2221 62.121 12.9929C63.107 13.7638 63.6001 14.8036 63.6001 16.1123C63.6001 17.0805 63.331 17.923 62.7934 18.64C62.2735 19.339 61.5383 19.8858 60.5884 20.2802C59.6382 20.6746 58.5176 20.8719 57.2269 20.8719Z" fill="white"/>
<path d="M65.7732 3.49578C66.132 3.87223 66.6785 4.06048 67.4138 4.06048C68.1487 4.06048 68.6865 3.87223 69.0271 3.49578C69.3676 3.10139 69.5381 2.61736 69.5381 2.04369C69.5381 1.43415 69.3676 0.94118 69.0271 0.564695C68.6865 0.188242 68.1487 0 67.4138 0C66.6785 0 66.132 0.188242 65.7732 0.564695C65.4327 0.94118 65.2626 1.43415 65.2626 2.04369C65.2626 2.61736 65.4327 3.10139 65.7732 3.49578Z" fill="white"/>
<path fill-rule="evenodd" clip-rule="evenodd" d="M79.7641 20.9256C78.4733 20.9256 77.3351 20.7193 76.349 20.307C75.363 19.8947 74.5294 19.3388 73.848 18.6398C73.1669 17.9229 72.647 17.1159 72.2885 16.2195C71.948 15.3233 71.7775 14.3911 71.7775 13.423V12.8583C71.7775 11.8544 71.9569 10.9043 72.3154 10.008C72.6918 9.09369 73.2207 8.28697 73.9018 7.58782C74.6012 6.87073 75.4437 6.315 76.4298 5.92061C77.4155 5.50828 78.5271 5.30212 79.7641 5.30212C81.001 5.30212 82.1126 5.50828 83.0983 5.92061C84.0844 6.315 84.918 6.87073 85.5994 7.58782C86.2984 8.28697 86.8273 9.09369 87.1858 10.008C87.5443 10.9043 87.7237 11.8544 87.7237 12.8583V13.423C87.7237 14.3911 87.5443 15.3233 87.1858 16.2195C86.8453 17.1159 86.3343 17.9229 85.6532 18.6398C84.9718 19.3388 84.1382 19.8947 83.1522 20.307C82.1664 20.7193 81.0368 20.9256 79.7641 20.9256ZM79.7641 17.7255C80.6784 17.7255 81.4491 17.5282 82.0767 17.1338C82.704 16.7215 83.1791 16.175 83.502 15.4936C83.8246 14.7945 83.9857 14.0057 83.9857 13.1273C83.9857 12.2309 83.8156 11.4421 83.4751 10.7609C83.1522 10.0617 82.6681 9.51496 82.0229 9.12057C81.3953 8.70823 80.6425 8.50209 79.7641 8.50209C78.8856 8.50209 78.1238 8.70823 77.4783 9.12057C76.851 9.51496 76.367 10.0617 76.0261 10.7609C75.6856 11.4421 75.5155 12.2309 75.5155 13.1273C75.5155 14.0057 75.6766 14.7945 75.9995 15.4936C76.3401 16.175 76.8241 16.7215 77.4514 17.1338C78.079 17.5282 78.8497 17.7255 79.7641 17.7255Z" fill="white"/>
<path d="M92.9398 8.37161C92.8113 8.69284 92.7037 9.04071 92.6172 9.41524V5.81701H89.659V20.4186H93.3969V11.8405C93.3969 10.8904 93.6747 10.1374 94.2305 9.5817C94.8043 9.00804 95.5481 8.72119 96.4624 8.72119C97.3588 8.72119 98.0578 8.99907 98.5598 9.55479C99.0798 10.1105 99.3396 10.8366 99.3396 11.7329V20.4186H103.078V12.0556C103.078 9.83267 102.629 8.16546 101.733 7.05398C100.837 5.92459 99.519 5.35986 97.7801 5.35986H97.6186C96.4535 5.35986 95.4764 5.61086 94.6877 6.1128C93.9169 6.61477 93.3341 7.36771 92.9398 8.37161Z" fill="white"/>
<path d="M45.2315 8.61853V20.4235H48.9695V5.8219H43.188V8.61853H45.2315Z" fill="white"/>
<path d="M66.0474 8.61853V20.4235H69.785V5.8219H64.0035V8.61853H66.0474Z" fill="white"/>
<path fill-rule="evenodd" clip-rule="evenodd" d="M11.7145 23.4107C18.179 23.4107 23.4198 18.17 23.4198 11.7054C23.4198 5.24067 18.179 0 11.7145 0C5.24974 0 0.00906372 5.24067 0.00906372 11.7054C0.00906372 18.17 5.24974 23.4107 11.7145 23.4107ZM20.329 10.4907C19.2375 11.7671 17.7001 12.5619 15.9968 12.5619C12.6855 12.5619 10.0012 9.55811 10.0012 5.85272C10.0012 4.92051 10.1711 4.0327 10.4782 3.22594C6.32896 3.85612 3.14944 7.43871 3.14944 11.7639C3.14944 13.0259 3.42011 14.2246 3.90657 15.3052C4.40005 14.8462 5.09356 14.5605 5.86169 14.5605C7.35958 14.5605 8.5739 15.647 8.5739 16.9872C8.5739 17.8871 8.02638 18.6726 7.21312 19.0916C8.53917 19.921 10.1065 20.4003 11.7857 20.4003C16.5555 20.4003 20.4222 16.5336 20.4222 11.7639C20.4222 11.3314 20.3901 10.9062 20.329 10.4907Z" fill="white"/>
<mask id="mask0_1_15272" style="mask-type:luminance" maskUnits="userSpaceOnUse" x="0" y="0" width="24" height="24">
<path fill-rule="evenodd" clip-rule="evenodd" d="M11.7054 23.4385C18.17 23.4385 23.4107 18.1978 23.4107 11.7332C23.4107 5.26851 18.17 0.027832 11.7054 0.027832C5.24067 0.027832 0 5.26851 0 11.7332C0 18.1978 5.24067 23.4385 11.7054 23.4385ZM20.3199 10.5186C19.2284 11.7949 17.691 12.5897 15.9877 12.5897C12.6764 12.5897 9.99216 9.58594 9.99216 5.88055C9.99216 4.94834 10.162 4.06053 10.4691 3.25377C6.3199 3.88395 3.14037 7.46655 3.14037 11.7917C3.14037 13.0537 3.41104 14.2524 3.89751 15.3331C4.39099 14.874 5.0845 14.5883 5.85262 14.5883C7.35052 14.5883 8.56484 15.6748 8.56484 17.015C8.56484 17.9149 8.01731 18.7004 7.20405 19.1195C8.53011 19.9489 10.0974 20.4281 11.7767 20.4281C16.5464 20.4281 20.4131 16.5614 20.4131 11.7917C20.4131 11.3592 20.3811 10.934 20.3199 10.5186Z" fill="white"/>
</mask>
<g mask="url(#mask0_1_15272)">
<path d="M20.3261 10.5064L21.1731 10.3812L20.8983 8.5194L19.6751 9.94974L20.3261 10.5064ZM10.4753 3.2416L11.2758 3.54626L11.7979 2.17442L10.3467 2.39483L10.4753 3.2416ZM3.90371 15.3209L3.12271 15.6725L3.61286 16.7613L4.48711 15.948L3.90371 15.3209ZM7.21025 19.1073L6.81797 18.3458L5.47977 19.0355L6.75615 19.8336L7.21025 19.1073ZM22.5606 11.7211C22.5606 17.7128 17.7033 22.5701 11.7116 22.5701V24.283C18.6493 24.283 24.2736 18.6588 24.2736 11.7211H22.5606ZM11.7116 0.872135C17.7033 0.872135 22.5606 5.72937 22.5606 11.7211H24.2736C24.2736 4.78332 18.6493 -0.84082 11.7116 -0.84082V0.872135ZM0.86271 11.7211C0.86271 5.72937 5.71992 0.872135 11.7116 0.872135V-0.84082C4.77387 -0.84082 -0.850277 4.78332 -0.850277 11.7211H0.86271ZM11.7116 22.5701C5.71992 22.5701 0.86271 17.7128 0.86271 11.7211H-0.850277C-0.850277 18.6588 4.77387 24.283 11.7116 24.283V22.5701ZM15.9939 13.4341C17.9753 13.4341 19.7418 12.5075 20.9771 11.063L19.6751 9.94974C18.7275 11.0579 17.4192 11.7211 15.9939 11.7211V13.4341ZM9.14185 5.86838C9.14185 9.95368 12.1215 13.4341 15.9939 13.4341V11.7211C13.2437 11.7211 10.8548 9.19388 10.8548 5.86838H9.14185ZM9.67483 2.93694C9.33083 3.8408 9.14185 4.83186 9.14185 5.86838H10.8548C10.8548 5.04047 11.0057 4.25588 11.2758 3.54626L9.67483 2.93694ZM4.00308 11.7796C4.00308 7.8841 6.86693 4.65595 10.6039 4.0884L10.3467 2.39483C5.78524 3.08763 2.2901 7.02464 2.2901 11.7796H4.00308ZM4.68471 14.9693C4.24704 13.997 4.00308 12.918 4.00308 11.7796H2.2901C2.2901 13.1651 2.58749 14.4835 3.12271 15.6725L4.68471 14.9693ZM5.85882 13.7196C4.87872 13.7196 3.97553 14.0843 3.3203 14.6938L4.48711 15.948C4.81885 15.6394 5.30271 15.4326 5.85882 15.4326V13.7196ZM9.42752 17.0029C9.42752 15.1025 7.73769 13.7196 5.85882 13.7196V15.4326C6.97578 15.4326 7.71456 16.2228 7.71456 17.0029H9.42752ZM7.6025 19.8688C8.65674 19.3255 9.42752 18.2702 9.42752 17.0029H7.71456C7.71456 17.5353 7.39029 18.0511 6.81797 18.3458L7.6025 19.8688ZM11.7829 19.5593C10.2688 19.5593 8.85824 19.1278 7.66436 18.3811L6.75615 19.8336C8.21438 20.7453 9.93839 21.2723 11.7829 21.2723V19.5593ZM19.5627 11.7796C19.5627 16.0761 16.0794 19.5593 11.7829 19.5593V21.2723C17.0254 21.2723 21.2756 17.0224 21.2756 11.7796H19.5627ZM19.4788 10.6316C19.5339 11.0057 19.5627 11.389 19.5627 11.7796H21.2756C21.2756 11.3049 21.2407 10.838 21.1731 10.3812L19.4788 10.6316Z" fill="white"/>
</g>
</svg>
