<svg width="108" height="24" viewBox="0 0 108 24" fill="none" xmlns="http://www.w3.org/2000/svg">
<g clip-path="url(#clip0_1_15329)">
<path d="M104.731 23.4133C103.863 23.4133 103.149 23.1625 102.59 22.6609C102.05 22.1401 101.78 21.5034 101.78 20.751C101.78 19.9794 102.05 19.3331 102.59 18.8122C103.149 18.2913 103.863 18.0309 104.731 18.0309C105.58 18.0309 106.275 18.2913 106.815 18.8122C107.374 19.3331 107.654 19.9794 107.654 20.751C107.654 21.5034 107.374 22.1401 106.815 22.6609C106.275 23.1625 105.58 23.4133 104.731 23.4133Z" fill="white"/>
<path d="M81.7961 15.0793C81.7961 13.4202 82.1048 11.9637 82.7221 10.7097C83.3589 9.45572 84.2173 8.49112 85.2975 7.8159C86.3781 7.14068 87.5837 6.8031 88.9148 6.8031C90.053 6.8031 91.0467 7.03458 91.8955 7.49759C92.7635 7.9606 93.4291 8.56829 93.8921 9.32066V7.03458H98.8404V23.1819H93.8921V20.8958C93.4099 21.6481 92.7346 22.2559 91.8666 22.7188C91.0176 23.1819 90.0242 23.4134 88.8859 23.4134C87.5741 23.4134 86.3781 23.0758 85.2975 22.4005C84.2173 21.706 83.3589 20.7318 82.7221 19.4778C82.1048 18.2046 81.7961 16.7384 81.7961 15.0793ZM93.8921 15.1082C93.8921 13.8736 93.5449 12.8993 92.8504 12.1855C92.1751 11.4717 91.3456 11.1148 90.3618 11.1148C89.3778 11.1148 88.5386 11.4717 87.8441 12.1855C87.1688 12.88 86.8312 13.8446 86.8312 15.0793C86.8312 16.314 87.1688 17.2978 87.8441 18.0309C88.5386 18.7447 89.3778 19.1016 90.3618 19.1016C91.3456 19.1016 92.1751 18.7447 92.8504 18.0309C93.5449 17.3171 93.8921 16.3429 93.8921 15.1082Z" fill="white"/>
<path d="M79.2016 1.76672V23.1807H74.2531V1.76672H79.2016Z" fill="white"/>
<path d="M68.2062 5.35275C67.3379 5.35275 66.6241 5.10197 66.0648 4.60038C65.5246 4.07949 65.2546 3.44285 65.2546 2.69049C65.2546 1.91881 65.5246 1.28217 66.0648 0.780587C66.6241 0.259707 67.3379 -0.000732422 68.2062 -0.000732422C69.0549 -0.000732422 69.7494 0.259707 70.2897 0.780587C70.8492 1.28217 71.1288 1.91881 71.1288 2.69049C71.1288 3.44285 70.8492 4.07949 70.2897 4.60038C69.7494 5.10197 69.0549 5.35275 68.2062 5.35275ZM70.6658 7.03114V23.1784H65.7176V7.03114H70.6658Z" fill="white"/>
<path d="M56.057 6.87231C57.9475 6.87231 59.4523 7.48965 60.5713 8.72434C61.7093 9.93972 62.2785 11.6181 62.2785 13.7595V23.1932H57.3591V14.4251C57.3591 13.3447 57.0795 12.5055 56.52 11.9075C55.9605 11.3095 55.2082 11.0104 54.2627 11.0104C53.3174 11.0104 52.5651 11.3095 52.0056 11.9075C51.4461 12.5055 51.1665 13.3447 51.1665 14.4251V23.1932H46.218V7.04594H51.1665V9.18735C51.668 8.47355 52.3432 7.91409 53.192 7.50896C54.041 7.08452 54.9959 6.87231 56.057 6.87231Z" fill="white"/>
<path d="M25.5873 15.0793C25.5873 13.4202 25.896 11.9637 26.5134 10.7097C27.1499 9.45572 28.0085 8.49112 29.0888 7.8159C30.1691 7.14068 31.3747 6.8031 32.706 6.8031C33.8443 6.8031 34.8377 7.03458 35.6865 7.49759C36.5547 7.9606 37.2204 8.56829 37.6834 9.32066V7.03458H42.6316V23.1819H37.6834V20.8958C37.2009 21.6481 36.5259 22.2559 35.6576 22.7188C34.8088 23.1819 33.8152 23.4134 32.6771 23.4134C31.3651 23.4134 30.1691 23.0758 29.0888 22.4005C28.0085 21.706 27.1499 20.7318 26.5134 19.4778C25.896 18.2046 25.5873 16.7384 25.5873 15.0793ZM37.6834 15.1082C37.6834 13.8736 37.3361 12.8993 36.6416 12.1855C35.9663 11.4717 35.1368 11.1148 34.1528 11.1148C33.169 11.1148 32.3299 11.4717 31.6354 12.1855C30.9601 12.88 30.6225 13.8446 30.6225 15.0793C30.6225 16.314 30.9601 17.2978 31.6354 18.0309C32.3299 18.7447 33.169 19.1016 34.1528 19.1016C35.1368 19.1016 35.9663 18.7447 36.6416 18.0309C37.3361 17.3171 37.6834 16.3429 37.6834 15.1082Z" fill="white"/>
<path d="M23.0066 2.86414V23.1784H18.0582V10.9956L13.515 23.1784H9.52155L4.94939 10.9667V23.1784H0.0010376V2.86414H5.84646L11.5472 16.9279L17.1901 2.86414H23.0066Z" fill="white"/>
</g>
<defs>
<clipPath id="clip0_1_15329">
<rect width="107.689" height="23.4107" fill="white"/>
</clipPath>
</defs>
</svg>
