<svg width="16" height="15" viewBox="0 0 16 15" fill="none" xmlns="http://www.w3.org/2000/svg">
<path d="M7.07852 0.477847C7.34677 -0.159283 8.26038 -0.159282 8.52862 0.477848L10.1118 4.2383C10.2249 4.5069 10.4806 4.69042 10.7741 4.71367L14.8835 5.03914C15.5797 5.09428 15.8621 5.95267 15.3316 6.40158L12.2007 9.0511C11.9771 9.24038 11.8794 9.53735 11.9477 9.82027L12.9042 13.7819C13.0663 14.4531 12.3272 14.9836 11.7311 14.624L8.21289 12.501C7.96159 12.3493 7.64555 12.3493 7.39426 12.501L3.87603 14.624C3.27993 14.9836 2.54081 14.4531 2.70287 13.7819L3.65942 9.82027C3.72775 9.53735 3.63008 9.24038 3.40646 9.0511L0.275515 6.40158C-0.254957 5.95267 0.0273655 5.09428 0.723618 5.03914L4.83303 4.71367C5.12656 4.69042 5.38224 4.5069 5.49533 4.2383L7.07852 0.477847Z" fill="#FF4C00"/>
</svg>
