<svg width="36" height="36" viewBox="0 0 36 36" fill="none" xmlns="http://www.w3.org/2000/svg">
<path d="M35.2331 33.3255C35.3858 33.5284 35.4789 33.7698 35.5019 34.0226C35.5249 34.2755 35.477 34.5298 35.3636 34.7569C35.2501 34.984 35.0755 35.175 34.8595 35.3084C34.6435 35.4419 34.3945 35.5124 34.1406 35.5122H1.36563C1.11201 35.5122 0.86341 35.4416 0.647674 35.3082C0.431938 35.1749 0.257592 34.9841 0.144173 34.7573C0.0307542 34.5304 -0.0172571 34.2765 0.00551872 34.0239C0.0282946 33.7713 0.120958 33.5301 0.273126 33.3272C1.48236 31.7059 3.09489 30.4295 4.95039 29.6246C3.9333 28.6963 3.22065 27.4822 2.90596 26.1417C2.59128 24.8011 2.68927 23.3967 3.18708 22.1128C3.68489 20.8289 4.55925 19.7255 5.6954 18.9475C6.83154 18.1695 8.17638 17.7531 9.5534 17.7531C10.9304 17.7531 12.2753 18.1695 13.4114 18.9475C14.5476 19.7255 15.4219 20.8289 15.9197 22.1128C16.4175 23.3967 16.5155 24.8011 16.2008 26.1417C15.8862 27.4822 15.1735 28.6963 14.1564 29.6246C15.4951 30.2033 16.7116 31.0311 17.7412 32.064C18.7707 31.0311 19.9873 30.2033 21.3259 29.6246C20.3089 28.6963 19.5962 27.4822 19.2815 26.1417C18.9668 24.8011 19.0648 23.3967 19.5626 22.1128C20.0604 20.8289 20.9348 19.7255 22.0709 18.9475C23.2071 18.1695 24.5519 17.7531 25.929 17.7531C27.306 17.7531 28.6508 18.1695 29.787 18.9475C30.9231 19.7255 31.7975 20.8289 32.2953 22.1128C32.7931 23.3967 32.8911 24.8011 32.5764 26.1417C32.2617 27.4822 31.549 28.6963 30.532 29.6246C32.3961 30.4252 34.0172 31.7014 35.2331 33.3255ZM0.546251 17.4859C0.68972 17.5935 0.852978 17.6718 1.0267 17.7163C1.20043 17.7608 1.38122 17.7707 1.55875 17.7453C1.73629 17.72 1.90709 17.6599 2.0614 17.5685C2.21572 17.4771 2.35052 17.3563 2.45813 17.2128C3.28495 16.1104 4.3571 15.2156 5.58966 14.5993C6.82222 13.983 8.18133 13.6622 9.55938 13.6622C10.9374 13.6622 12.2965 13.983 13.5291 14.5993C14.7617 15.2156 15.8338 16.1104 16.6606 17.2128C16.7878 17.3824 16.9528 17.5201 17.1424 17.6149C17.332 17.7097 17.5411 17.759 17.7531 17.759C17.9651 17.759 18.1742 17.7097 18.3639 17.6149C18.5535 17.5201 18.7184 17.3824 18.8456 17.2128C19.6724 16.1104 20.7446 15.2156 21.9772 14.5993C23.2097 13.983 24.5688 13.6622 25.9469 13.6622C27.3249 13.6622 28.684 13.983 29.9166 14.5993C31.1492 15.2156 32.2213 16.1104 33.0481 17.2128C33.1558 17.3563 33.2908 17.4771 33.4452 17.5684C33.5996 17.6598 33.7705 17.7198 33.9481 17.7451C34.1257 17.7704 34.3066 17.7604 34.4803 17.7158C34.6541 17.6712 34.8174 17.5928 34.9609 17.4851C35.1043 17.3774 35.2252 17.2424 35.3165 17.088C35.4078 16.9336 35.4678 16.7627 35.4931 16.5851C35.5184 16.4075 35.5085 16.2266 35.4639 16.0529C35.4192 15.8791 35.3408 15.7158 35.2331 15.5723C34.0238 13.9516 32.4113 12.6756 30.5559 11.8715C31.5729 10.9432 32.2856 9.72911 32.6003 8.38853C32.915 7.04795 32.817 5.64356 32.3192 4.35967C31.8214 3.07579 30.947 1.97242 29.8109 1.19438C28.6747 0.416342 27.3299 0 25.9529 0C24.5758 0 23.231 0.416342 22.0948 1.19438C20.9587 1.97242 20.0843 3.07579 19.5865 4.35967C19.0887 5.64356 18.9907 7.04795 19.3054 8.38853C19.6201 9.72911 20.3328 10.9432 21.3498 11.8715C20.0112 12.4501 18.7946 13.2779 17.7651 14.3108C16.7355 13.2779 15.519 12.4501 14.1803 11.8715C15.1974 10.9432 15.9101 9.72911 16.2247 8.38853C16.5394 7.04795 16.4414 5.64356 15.9436 4.35967C15.4458 3.07579 14.5715 1.97242 13.4353 1.19438C12.2992 0.416342 10.9543 0 9.5773 0C8.20028 0 6.85544 0.416342 5.7193 1.19438C4.58315 1.97242 3.70879 3.07579 3.21098 4.35967C2.71317 5.64356 2.61518 7.04795 2.92986 8.38853C3.24455 9.72911 3.9572 10.9432 4.97429 11.8715C3.11008 12.6728 1.48896 13.9495 0.273126 15.574C0.165524 15.7175 0.0872338 15.8808 0.0427259 16.0545C-0.001782 16.2282 -0.0116361 16.409 0.0137259 16.5865C0.0390879 16.7641 0.0991696 16.9349 0.19054 17.0892C0.281911 17.2435 0.402782 17.3783 0.546251 17.4859Z" fill="#FF4C00"/>
</svg>
