<svg width="8" height="8" viewBox="0 0 8 8" fill="none" xmlns="http://www.w3.org/2000/svg">
<path d="M7.33999 7.09032L7.09048 7.33983C6.95265 7.47765 6.72923 7.47769 6.59141 7.33987L3.72168 4.47014L0.851944 7.33987C0.71416 7.47765 0.490696 7.47765 0.352875 7.33983L0.10336 7.09032C-0.0344619 6.9525 -0.0344622 6.72903 0.103322 6.59125L2.97305 3.72152L0.103337 0.851801C-0.0344801 0.713984 -0.0344727 0.490527 0.103349 0.352706L0.352864 0.10319C0.490685 -0.0346308 0.714142 -0.0346383 0.85196 0.103179L3.72168 2.9729L6.5914 0.103171C6.72922 -0.0346464 6.95267 -0.0346352 7.09049 0.103186L7.34001 0.352702C7.47783 0.490523 7.47784 0.713976 7.34002 0.851793L4.4703 3.72152L7.34003 6.59125C7.47785 6.72907 7.47781 6.9525 7.33999 7.09032Z" fill="white"/>
</svg>
